<svg xmlns="http://www.w3.org/2000/svg" viewBox="0 0 640 400" role="img" aria-labelledby="title desc">
  <title id="title">Oren</title>
  <desc id="desc">Visual pembelajaran Kiddo Adventures level 15</desc>
  <defs><linearGradient id="bg" x1="0" x2="1" y1="0" y2="1"><stop offset="0" stop-color="#fff8ec"/><stop offset="1" stop-color="#eaf5ff"/></linearGradient></defs>
  <rect width="640" height="400" rx="36" fill="url(#bg)"/>
  <circle cx="86" cy="78" r="46" fill="#ffb703" opacity=".35"/>
  <circle cx="552" cy="92" r="58" fill="#fb8500" opacity=".18"/>
  <path d="M0 340 C110 302 196 376 314 340 S510 302 640 342 V400 H0Z" fill="#fff" opacity=".7"/>
  <ellipse cx="320" cy="300" rx="150" ry="22" fill="#000" opacity=".08"/><circle cx="320" cy="220" r="94" fill="#fb8500"/><ellipse cx="366" cy="136" rx="38" ry="18" fill="#52b788" transform="rotate(-20 366 136)"/><path d="M286 162 q34 52 0 116M354 162 q-34 52 0 116" stroke="#ffcf70" stroke-width="8" fill="none"/>
  <rect x="36" y="32" width="132" height="104" rx="30" fill="#fff" stroke="#fb8500" stroke-width="8"/>
  <text x="102" y="110" text-anchor="middle" font-family="Arial, sans-serif" font-size="78" font-weight="900" fill="#302d50">O</text>
  <text x="320" y="374" text-anchor="middle" font-family="Arial, sans-serif" font-size="28" font-weight="800" fill="#514b66">Oren</text>
</svg>
