<svg xmlns="http://www.w3.org/2000/svg" viewBox="0 0 640 400" role="img" aria-labelledby="title desc">
  <title id="title">Wau</title>
  <desc id="desc">Visual pembelajaran Kiddo Adventures level 23</desc>
  <defs><linearGradient id="bg" x1="0" x2="1" y1="0" y2="1"><stop offset="0" stop-color="#fff8ec"/><stop offset="1" stop-color="#eaf5ff"/></linearGradient></defs>
  <rect width="640" height="400" rx="36" fill="url(#bg)"/>
  <circle cx="86" cy="78" r="46" fill="#8338ec" opacity=".35"/>
  <circle cx="552" cy="92" r="58" fill="#ff006e" opacity=".18"/>
  <path d="M0 340 C110 302 196 376 314 340 S510 302 640 342 V400 H0Z" fill="#fff" opacity=".7"/>
  <ellipse cx="320" cy="300" rx="150" ry="22" fill="#000" opacity=".08"/><path d="M320 94 L424 202 L320 330 L216 202 Z" fill="#ff006e"/><path d="M320 94 v236M216 202 h208" stroke="#8338ec" stroke-width="10"/><path d="M320 330 C272 370 386 398 320 430" stroke="#555" stroke-width="6" fill="none"/>
  <rect x="36" y="32" width="132" height="104" rx="30" fill="#fff" stroke="#ff006e" stroke-width="8"/>
  <text x="102" y="110" text-anchor="middle" font-family="Arial, sans-serif" font-size="78" font-weight="900" fill="#302d50">W</text>
  <text x="320" y="374" text-anchor="middle" font-family="Arial, sans-serif" font-size="28" font-weight="800" fill="#514b66">Wau</text>
</svg>
